# xmcd CD database file
#
# Track frame offsets:
#	225
#	96422
#	118563
#	133765
#	194383
#
# Disc length: 2925 seconds
#
# Revision: 0
# Processed by: cddbd v1.5.1PL0 Copyright (c) Steve Scherf et al.
# Submitted via: CDex 1.51
#
DISCID=450b6a05
DTITLE=Howard Riley - Flight
DYEAR=1971
DGENRE=Jazz
TTITLE0=Motion (Riley)
TTITLE1=Cirrus (Oxley)
TTITLE2=Forgotten Game (Guy)
TTITLE3=Two Ballads - For Lesley (Riley) For Sue (Guy)
TTITLE4=Flight (Riley)
EXTD=YEAR: 1971
EXTT0=
EXTT1=
EXTT2=
EXTT3=
EXTT4=
PLAYORDER=
